<?xml version="1.0" encoding="us-ascii" standalone="no"?><svg xmlns="http://www.w3.org/2000/svg" xmlns:xlink="http://www.w3.org/1999/xlink" contentStyleType="text/css" height="569px" preserveAspectRatio="none" style="width:536px;height:569px;background:#FFFFFF;" version="1.1" viewBox="0 0 536 569" width="536px" zoomAndPan="magnify"><defs/><g><text fill="#888888" font-family="sans-serif" font-size="10" lengthAdjust="spacing" textLength="139" x="383.5" y="9.668">Mod&#232;le d'information m&#233;tier</text><!--class Patient--><g id="elem_Patient"><rect codeLine="6" fill="#F1F1F1" height="26.4883" id="Patient" rx="2.5" ry="2.5" style="stroke:#181818;stroke-width:0.5;" width="53" x="50.5" y="19.7773"/><text fill="#000000" font-family="sans-serif" font-size="14" lengthAdjust="spacing" textLength="47" x="53.5" y="38.3125">Patient</text></g><!--class Dossier--><g id="elem_Dossier"><rect codeLine="7" fill="#F1F1F1" height="26.4883" id="Dossier" rx="2.5" ry="2.5" style="stroke:#181818;stroke-width:0.5;" width="57" x="143.5" y="123.2673"/><text fill="#000000" font-family="sans-serif" font-size="14" lengthAdjust="spacing" textLength="51" x="146.5" y="141.8025">Dossier</text></g><!--class Prelevement--><g id="elem_Prelevement"><rect codeLine="8" fill="#F1F1F1" height="26.4883" id="Prelevement" rx="2.5" ry="2.5" style="stroke:#181818;stroke-width:0.5;" width="90" x="239" y="226.7573"/><text fill="#000000" font-family="sans-serif" font-size="14" lengthAdjust="spacing" textLength="84" x="242" y="245.2925">Prelevement</text></g><!--class Echantillon--><g id="elem_Echantillon"><rect codeLine="9" fill="#F1F1F1" height="26.4883" id="Echantillon" rx="2.5" ry="2.5" style="stroke:#181818;stroke-width:0.5;" width="82" x="243" y="330.2473"/><text fill="#000000" font-family="sans-serif" font-size="14" lengthAdjust="spacing" textLength="76" x="246" y="348.7825">Echantillon</text></g><!--class Analyse--><g id="elem_Analyse"><rect codeLine="10" fill="#F1F1F1" height="26.4883" id="Analyse" rx="2.5" ry="2.5" style="stroke:#181818;stroke-width:0.5;" width="59" x="367.5" y="433.7273"/><text fill="#000000" font-family="sans-serif" font-size="14" lengthAdjust="spacing" textLength="53" x="370.5" y="452.2625">Analyse</text></g><!--class Resultat--><g id="elem_Resultat"><rect codeLine="11" fill="#F1F1F1" height="26.4883" id="Resultat" rx="2.5" ry="2.5" style="stroke:#181818;stroke-width:0.5;" width="61" x="366.5" y="537.2173"/><text fill="#000000" font-family="sans-serif" font-size="14" lengthAdjust="spacing" textLength="55" x="369.5" y="555.7525">Resultat</text></g><!--class CompteRendu--><g id="elem_CompteRendu"><rect codeLine="12" fill="#F1F1F1" height="26.4883" id="CompteRendu" rx="2.5" ry="2.5" style="stroke:#181818;stroke-width:0.5;" width="104" x="7" y="226.7573"/><text fill="#000000" font-family="sans-serif" font-size="14" lengthAdjust="spacing" textLength="98" x="10" y="245.2925">CompteRendu</text></g><!--class Biologiste--><g id="elem_Biologiste"><rect codeLine="13" fill="#F1F1F1" height="26.4883" id="Biologiste" rx="2.5" ry="2.5" style="stroke:#181818;stroke-width:0.5;" width="73" x="22.5" y="330.2473"/><text fill="#000000" font-family="sans-serif" font-size="14" lengthAdjust="spacing" textLength="67" x="25.5" y="348.7825">Biologiste</text></g><!--class Facture--><g id="elem_Facture"><rect codeLine="14" fill="#F1F1F1" height="26.4883" id="Facture" rx="2.5" ry="2.5" style="stroke:#181818;stroke-width:0.5;" width="57" x="145.5" y="226.7573"/><text fill="#000000" font-family="sans-serif" font-size="14" lengthAdjust="spacing" textLength="51" x="148.5" y="245.2925">Facture</text></g><!--class Paiement--><g id="elem_Paiement"><rect codeLine="15" fill="#F1F1F1" height="26.4883" id="Paiement" rx="2.5" ry="2.5" style="stroke:#181818;stroke-width:0.5;" width="69" x="139.5" y="330.2473"/><text fill="#000000" font-family="sans-serif" font-size="14" lengthAdjust="spacing" textLength="63" x="142.5" y="348.7825">Paiement</text></g><!--class M?decin--><g id="elem_M&#233;decin"><rect codeLine="16" fill="#F1F1F1" height="26.4883" id="M&#233;decin" rx="2.5" ry="2.5" style="stroke:#181818;stroke-width:0.5;" width="63" x="138.5" y="19.7773"/><text fill="#000000" font-family="sans-serif" font-size="14" lengthAdjust="spacing" textLength="57" x="141.5" y="38.3125">M&#233;decin</text></g><!--class Site--><g id="elem_Site"><rect codeLine="17" fill="#F1F1F1" height="26.4883" id="Site" rx="2.5" ry="2.5" style="stroke:#181818;stroke-width:0.5;" width="31" x="252.5" y="19.7773"/><text fill="#000000" font-family="sans-serif" font-size="14" lengthAdjust="spacing" textLength="25" x="255.5" y="38.3125">Site</text></g><!--class Automate--><g id="elem_Automate"><rect codeLine="18" fill="#F1F1F1" height="26.4883" id="Automate" rx="2.5" ry="2.5" style="stroke:#181818;stroke-width:0.5;" width="73" x="360.5" y="330.2473"/><text fill="#000000" font-family="sans-serif" font-size="14" lengthAdjust="spacing" textLength="67" x="363.5" y="348.7825">Automate</text></g><!--class Worklist--><g id="elem_Worklist"><rect fill="#F1F1F1" height="26.4883" id="Worklist" rx="2.5" ry="2.5" style="stroke:#181818;stroke-width:0.5;" width="61" x="468.5" y="330.2473"/><text fill="#000000" font-family="sans-serif" font-size="14" lengthAdjust="spacing" textLength="55" x="471.5" y="348.7825">Worklist</text></g><!--link Patient to Dossier--><g id="link_Patient_Dossier"><path codeLine="21" d="M85.24,46.4473 C93.75,58.8873 107.77,78.2773 122,93.2673 C132.33,104.1473 140.5895,111.321 150.7295,119.321 " fill="none" id="Patient-to-Dossier" style="stroke:#181818;stroke-width:1.0;"/><polygon fill="#181818" points="155.44,123.0373,150.8518,114.3225,151.5146,119.9404,145.8967,120.6031,155.44,123.0373" style="stroke:#181818;stroke-width:1.0;"/><text fill="#000000" font-family="sans-serif" font-size="13" lengthAdjust="spacing" textLength="35" x="123" y="89.8357">ouvre</text><text fill="#000000" font-family="sans-serif" font-size="13" lengthAdjust="spacing" textLength="8" x="78.8035" y="66.7894">1</text><text fill="#000000" font-family="sans-serif" font-size="13" lengthAdjust="spacing" textLength="22" x="122.5882" y="112.4083">1..*</text></g><!--link M?decin to Dossier--><g id="link_M&#233;decin_Dossier"><path codeLine="22" d="M168.55,46.7373 C167.38,58.7373 166.05,77.2273 167,93.2673 C167.59,103.2973 168.1552,108.6429 169.3052,117.0329 " fill="none" id="M&#233;decin-to-Dossier" style="stroke:#181818;stroke-width:1.0;"/><polygon fill="#181818" points="170.12,122.9773,172.8608,113.5175,169.441,118.0237,164.9349,114.6039,170.12,122.9773" style="stroke:#181818;stroke-width:1.0;"/><text fill="#000000" font-family="sans-serif" font-size="13" lengthAdjust="spacing" textLength="48" x="168" y="89.8357">prescrit</text><text fill="#000000" font-family="sans-serif" font-size="13" lengthAdjust="spacing" textLength="8" x="158.6084" y="66.9192">1</text><text fill="#000000" font-family="sans-serif" font-size="13" lengthAdjust="spacing" textLength="22" x="173.597" y="112.5856">1..*</text></g><!--link Dossier to Prelevement--><g id="link_Dossier_Prelevement"><path codeLine="23" d="M185.73,149.9573 C207.23,169.4373 244.1442,202.8781 265.7042,222.4181 " fill="none" id="Dossier-to-Prelevement" style="stroke:#181818;stroke-width:1.0;"/><polygon fill="#181818" points="270.15,226.4473,266.1675,217.4396,266.4452,223.0896,260.7951,223.3673,270.15,226.4473" style="stroke:#181818;stroke-width:1.0;"/><text fill="#000000" font-family="sans-serif" font-size="13" lengthAdjust="spacing" textLength="8" x="181.3179" y="170.3067">1</text><text fill="#000000" font-family="sans-serif" font-size="13" lengthAdjust="spacing" textLength="22" x="238.6759" y="216.048">1..*</text></g><!--link Prelevement to Echantillon--><g id="link_Prelevement_Echantillon"><path codeLine="24" d="M284,253.4473 C284,272.9173 284,304.3973 284,323.9373 " fill="none" id="Prelevement-to-Echantillon" style="stroke:#181818;stroke-width:1.0;"/><polygon fill="#181818" points="284,329.9373,288,320.9373,284,324.9373,280,320.9373,284,329.9373" style="stroke:#181818;stroke-width:1.0;"/><text fill="#000000" font-family="sans-serif" font-size="13" lengthAdjust="spacing" textLength="8" x="274.525" y="273.7967">1</text><text fill="#000000" font-family="sans-serif" font-size="13" lengthAdjust="spacing" textLength="22" x="257.8063" y="319.538">1..*</text></g><!--link Echantillon to Analyse--><g id="link_Echantillon_Analyse"><path codeLine="25" d="M297.86,356.9273 C319.54,376.4073 356.8057,409.8785 378.5657,429.4185 " fill="none" id="Echantillon-to-Analyse" style="stroke:#181818;stroke-width:1.0;"/><polygon fill="#181818" points="383.03,433.4273,379.0062,424.438,379.3098,430.0867,373.6611,430.3903,383.03,433.4273" style="stroke:#181818;stroke-width:1.0;"/><text fill="#000000" font-family="sans-serif" font-size="13" lengthAdjust="spacing" textLength="8" x="293.4959" y="377.2731">1</text><text fill="#000000" font-family="sans-serif" font-size="13" lengthAdjust="spacing" textLength="22" x="351.5102" y="423.0318">1..*</text></g><!--link Analyse to Resultat--><g id="link_Analyse_Resultat"><path codeLine="26" d="M397,460.4173 C397,479.8973 397,511.3773 397,530.9173 " fill="none" id="Analyse-to-Resultat" style="stroke:#181818;stroke-width:1.0;"/><polygon fill="#181818" points="397,536.9173,401,527.9173,397,531.9173,393,527.9173,397,536.9173" style="stroke:#181818;stroke-width:1.0;"/><text fill="#000000" font-family="sans-serif" font-size="13" lengthAdjust="spacing" textLength="46" x="398" y="503.7857">produit</text><text fill="#000000" font-family="sans-serif" font-size="13" lengthAdjust="spacing" textLength="8" x="387.525" y="480.7667">1</text><text fill="#000000" font-family="sans-serif" font-size="13" lengthAdjust="spacing" textLength="8" x="387.475" y="526.5218">1</text></g><!--link Dossier to CompteRendu--><g id="link_Dossier_CompteRendu"><path codeLine="28" d="M151.02,150.2173 C138.8,158.0573 123.4,168.6973 111,179.7573 C94.65,194.3273 82.1354,209.1083 72.2654,221.6783 " fill="none" id="Dossier-to-CompteRendu" style="stroke:#181818;stroke-width:1.0;"/><polygon fill="#181818" points="68.56,226.3973,77.2642,221.789,71.6479,222.4648,70.9721,216.8484,68.56,226.3973" style="stroke:#181818;stroke-width:1.0;"/><text fill="#000000" font-family="sans-serif" font-size="13" lengthAdjust="spacing" textLength="52" x="112" y="193.3257">contient</text><text fill="#000000" font-family="sans-serif" font-size="13" lengthAdjust="spacing" textLength="8" x="134.1209" y="170.3956">1</text><text fill="#000000" font-family="sans-serif" font-size="13" lengthAdjust="spacing" textLength="8" x="62.6798" y="215.9789">1</text></g><!--link CompteRendu to Biologiste--><g id="link_CompteRendu_Biologiste"><path codeLine="29" d="M59,253.4473 C59,272.9173 59,304.3973 59,323.9373 " fill="none" id="CompteRendu-to-Biologiste" style="stroke:#181818;stroke-width:1.0;"/><polygon fill="#181818" points="59,329.9373,63,320.9373,59,324.9373,55,320.9373,59,329.9373" style="stroke:#181818;stroke-width:1.0;"/><text fill="#000000" font-family="sans-serif" font-size="13" lengthAdjust="spacing" textLength="58" x="60" y="296.8157">sign&#233; par</text><text fill="#000000" font-family="sans-serif" font-size="13" lengthAdjust="spacing" textLength="8" x="49.525" y="273.7967">1</text><text fill="#000000" font-family="sans-serif" font-size="13" lengthAdjust="spacing" textLength="8" x="49.475" y="319.538">1</text></g><!--link Dossier to Facture--><g id="link_Dossier_Facture"><path codeLine="31" d="M172.25,149.9573 C172.63,169.4373 173.2533,200.9085 173.6333,220.4485 " fill="none" id="Dossier-to-Facture" style="stroke:#181818;stroke-width:1.0;"/><polygon fill="#181818" points="173.75,226.4473,177.5743,217.3713,173.6528,221.4483,169.5758,217.5268,173.75,226.4473" style="stroke:#181818;stroke-width:1.0;"/><text fill="#000000" font-family="sans-serif" font-size="13" lengthAdjust="spacing" textLength="24" x="152.1297" y="170.3067">0..1</text><text fill="#000000" font-family="sans-serif" font-size="13" lengthAdjust="spacing" textLength="8" x="164.1297" y="216.048">1</text></g><!--link Facture to Paiement--><g id="link_Facture_Paiement"><path codeLine="32" d="M174,253.4473 C174,272.9173 174,304.3973 174,323.9373 " fill="none" id="Facture-to-Paiement" style="stroke:#181818;stroke-width:1.0;"/><polygon fill="#181818" points="174,329.9373,178,320.9373,174,324.9373,170,320.9373,174,329.9373" style="stroke:#181818;stroke-width:1.0;"/><text fill="#000000" font-family="sans-serif" font-size="13" lengthAdjust="spacing" textLength="8" x="164.525" y="273.7967">1</text><text fill="#000000" font-family="sans-serif" font-size="13" lengthAdjust="spacing" textLength="22" x="147.8063" y="319.538">1..*</text></g><!--link Site to Dossier--><g id="link_Site_Dossier"><path codeLine="34" d="M259.27,46.3773 C250.27,58.7573 235.55,78.1073 221,93.2673 C210.73,103.9573 202.6852,111.072 192.7852,119.122 " fill="none" id="Site-to-Dossier" style="stroke:#181818;stroke-width:1.0;"/><polygon fill="#181818" points="188.13,122.9073,197.6364,120.3329,192.0094,119.7529,192.5893,114.1259,188.13,122.9073" style="stroke:#181818;stroke-width:1.0;"/><text fill="#000000" font-family="sans-serif" font-size="13" lengthAdjust="spacing" textLength="8" x="246.4167" y="66.9562">1</text><text fill="#000000" font-family="sans-serif" font-size="13" lengthAdjust="spacing" textLength="22" x="198.4733" y="112.4889">1..*</text></g><!--link Site to Prelevement--><g id="link_Site_Prelevement"><path codeLine="35" d="M268.98,46.5373 C271.83,83.1273 279.6825,183.6856 282.5525,220.4056 " fill="none" id="Site-to-Prelevement" style="stroke:#181818;stroke-width:1.0;"/><polygon fill="#181818" points="283.02,226.3873,286.3065,217.103,282.6304,221.4025,278.3309,217.7264,283.02,226.3873" style="stroke:#181818;stroke-width:1.0;"/><text fill="#000000" font-family="sans-serif" font-size="13" lengthAdjust="spacing" textLength="51" x="277.8" y="141.5757">effectue</text><text fill="#000000" font-family="sans-serif" font-size="13" lengthAdjust="spacing" textLength="8" x="259.8664" y="66.9126">1</text><text fill="#000000" font-family="sans-serif" font-size="13" lengthAdjust="spacing" textLength="22" x="286.8401" y="215.9651">1..*</text></g><!--link Automate to Analyse--><g id="link_Automate_Analyse"><path codeLine="37" d="M397,356.9273 C397,376.4073 397,407.8873 397,427.4273 " fill="none" id="Automate-to-Analyse" style="stroke:#181818;stroke-width:1.0;"/><polygon fill="#181818" points="397,433.4273,401,424.4273,397,428.4273,393,424.4273,397,433.4273" style="stroke:#181818;stroke-width:1.0;"/><text fill="#000000" font-family="sans-serif" font-size="13" lengthAdjust="spacing" textLength="8" x="387.525" y="377.2731">1</text><text fill="#000000" font-family="sans-serif" font-size="13" lengthAdjust="spacing" textLength="22" x="401.1938" y="423.0318">1..*</text></g><!--link Worklist to Analyse--><g id="link_Worklist_Analyse"><path codeLine="38" d="M486.49,356.9273 C466.92,376.4073 433.5035,409.6555 413.8635,429.1955 " fill="none" id="Worklist-to-Analyse" style="stroke:#181818;stroke-width:1.0;"/><polygon fill="#181818" points="409.61,433.4273,418.8114,429.9153,413.1545,429.9008,413.169,424.244,409.61,433.4273" style="stroke:#181818;stroke-width:1.0;"/><text fill="#000000" font-family="sans-serif" font-size="13" lengthAdjust="spacing" textLength="52" x="455.11" y="400.2957">ordonne</text><text fill="#000000" font-family="sans-serif" font-size="13" lengthAdjust="spacing" textLength="8" x="472.4019" y="377.2731">1</text><text fill="#000000" font-family="sans-serif" font-size="13" lengthAdjust="spacing" textLength="22" x="418.6113" y="423.0318">1..*</text></g><!--SRC=[XL9BRW8n3Dtd516RIfKOqMqNbUXFwWAfWaNN8J5WaSGeoI3H4vLppCMQ6P8XL4F9naxiv-VORmD2WUCpKisF1gxkqAx86H6GB3VDCI0uja45NAAJ6fZVejq99moNMdW_3S7XiWxm8Saky1luv9GEPXSEt81PnWAio-MViIpOa6wlv7rRFSKSQDY3ESVVv4ROW5gJJIzJA_J1GxhDmTSwY9p-Gf4Hvc1LdLwUaJIjqOUCU1Sor0xwRh2acpL71H8prm9xsBGE52S2ZB7q0zwTqSEei-FnK_IhwdwK_yJJUUHKxoDXhjr3Rk9s3hnq6DX5P82nd5lX3-QM4otymTmywsI7-3i_Rw7ed5GT6_-lyyul5dP2HWMTz74H6K2U5viuFQvjS-HHbtzf9rNLOWfm5a6ormURvS5QAVHBkxxqctaNwsdRXjKAOXF06SiQkuRDw_WYjzNnvpVoplfpYgo5Nm00]--></g></svg>